PathFileType	4	(X/Y/Z)	./resultDataOpenSim/trcMotMarkerGrf/sub06/qtm-03-05.trc
DataRate	CameraRate	NumFrames	NumMarkers	Units	OrigDataRate	OrigDataStartFrame	OrigNumFrames
250.000000	250.000000	5	24	m	250.000000	195	518
Frame#	Time	L.Toe.Tip			R.Toe.Tip			L.Ankle.Lat			R.Ankle.Lat			L.Ankle.Med			R.Ankle.Med			L.Heel			R.Heel			L.Knee.Lat			R.Knee.Lat			L.Knee.Med			R.Knee.Med			L.Thigh.Upper			R.Thigh.Upper			L.ASIS			R.ASIS			V.Sacral			L.Acromium			R.Acromium			C7			L.Elbow			R.Elbow			L.Wrist.Lat			R.Wrist.Lat
		X1	Y1	Z1	X2	Y2	Z2	X3	Y3	Z3	X4	Y4	Z4	X5	Y5	Z5	X6	Y6	Z6	X7	Y7	Z7	X8	Y8	Z8	X9	Y9	Z9	X10	Y10	Z10	X11	Y11	Z11	X12	Y12	Z12	X13	Y13	Z13	X14	Y14	Z14	X15	Y15	Z15	X16	Y16	Z16	X17	Y17	Z17	X18	Y18	Z18	X19	Y19	Z19	X20	Y20	Z20	X21	Y21	Z21	X22	Y22	Z22	X23	Y23	Z23	X24	Y24	Z24

195	0.776	0.076202008	-0.015163666	0.012019622	-0.42290579	0.092464702	0.18008916	-0.045523033	0.014440751	-0.0077440278	-0.43381354	0.23047737	0.20440097	-0.043966497	0.030019171	0.079627226	-0.39955619	0.21848033	0.12226613	-0.12223761	-0.010699778	0.039705823	-0.46552501	0.2739279	0.14222761	0.055259833	0.37423097	-0.045741009	-0.076690117	0.33988746	0.23816959	0.036327299	0.37748337	0.075074863	-0.098828542	0.32837935	0.10652987	-0.097622059	0.74260596	-0.11365744	-0.14736942	0.70064774	0.22754816	-0.034303326	0.77841696	-0.060475675	-0.05252724	0.75918016	0.18627538	-0.23088455	0.85068402	0.064450008	-0.094983119	1.2441448	-0.13053546	-0.083150879	1.2513391	0.23347379	-0.16710395	1.2901091	0.051836313	-0.18213332	0.93860086	-0.16930336	-0.17912371	0.94935195	0.31409877	-0.067994878	0.72461603	-0.21470323	-0.024349023	0.7574741	0.33538917
196	0.78	0.076138395	-0.015121522	0.012004633	-0.40393789	0.09391441	0.18086435	-0.045570291	0.014520938	-0.0076887987	-0.41740187	0.23161422	0.20500924	-0.044066201	0.030084496	0.079660831	-0.38363202	0.21973951	0.12224509	-0.12230915	-0.010670916	0.039685205	-0.45087259	0.27420007	0.14274232	0.056355762	0.37427297	-0.045094257	-0.061941549	0.34366199	0.23755027	0.037234381	0.37747381	0.075727239	-0.084470952	0.33188844	0.10580458	-0.092395191	0.74456578	-0.11336361	-0.14065614	0.70314009	0.22778819	-0.028607756	0.78083394	-0.060621908	-0.04618166	0.76166138	0.18598654	-0.22484915	0.85310281	0.06454525	-0.088647015	1.2469552	-0.13001454	-0.077044292	1.253432	0.23381641	-0.16075699	1.2924017	0.05229109	-0.17409885	0.94077363	-0.17010874	-0.1745438	0.95191018	0.3134921	-0.057039419	0.72779658	-0.21323169	-0.021941871	0.75860573	0.33560145
197	0.784	0.076070692	-0.015096303	0.012019064	-0.38472154	0.09533705	0.18165638	-0.045627809	0.014599895	-0.0076331733	-0.40075923	0.23265257	0.20571561	-0.044147795	0.030156749	0.079699413	-0.36780979	0.22085017	0.12226772	-0.12238704	-0.010651166	0.039670331	-0.43625091	0.27421765	0.14323271	0.057412085	0.37435456	-0.044401734	-0.047292042	0.34770701	0.23686177	0.037911745	0.37741544	0.076405869	-0.070280512	0.33565272	0.10490577	-0.087080033	0.74650243	-0.11284542	-0.13378475	0.70582423	0.22803538	-0.022926362	0.78326209	-0.060727094	-0.039846584	0.76421453	0.18573017	-0.21897318	0.85555329	0.064752367	-0.082329249	1.2498044	-0.12950103	-0.070969639	1.2555399	0.23415837	-0.15442647	1.294703	0.052741759	-0.16607454	0.94298133	-0.17090107	-0.17009286	0.95449066	0.31287398	-0.046038535	0.73108293	-0.21170591	-0.01955053	0.75981947	0.33583075
198	0.788	0.075997607	-0.015077126	0.012034646	-0.36524271	0.096727481	0.18249138	-0.045695122	0.014684147	-0.0075772285	-0.38412939	0.2335001	0.20636991	-0.044218306	0.030228819	0.079742867	-0.35206967	0.22184369	0.1223803	-0.12246914	-0.010642632	0.039671238	-0.42166009	0.27396769	0.14368787	0.058428896	0.37445025	-0.043663341	-0.032744191	0.35200714	0.2360996	0.038323846	0.37729132	0.077057101	-0.056224923	0.33956822	0.10397666	-0.081763441	0.74841126	-0.11216456	-0.12682339	0.70867966	0.22829674	-0.017292787	0.78565929	-0.060751419	-0.033511305	0.76683477	0.18551202	-0.21329618	0.85802678	0.06509122	-0.076008778	1.2526651	-0.12898958	-0.064909023	1.2576619	0.23450897	-0.14811123	1.2970019	0.053179955	-0.15805549	0.94521064	-0.17167285	-0.16575799	0.95707897	0.31224635	-0.034980601	0.7344719	-0.21012772	-0.0171272	0.76110767	0.33607646
199	0.792	0.075925395	-0.015047653	0.01202684	-0.34554067	0.098049869	0.18333814	-0.04577009	0.014780879	-0.0075239893	-0.36781494	0.23402832	0.20681876	-0.044295237	0.030292327	0.07978734	-0.33626169	0.22275827	0.12251664	-0.12254537	-0.010635813	0.039692854	-0.40709821	0.27343969	0.14410303	0.059387359	0.37453536	-0.0428843	-0.018307307	0.35653842	0.23527083	0.038366586	0.37708978	0.077636668	-0.042159834	0.34358175	0.10316347	-0.076441699	0.7502969	-0.11148257	-0.1198471	0.71163358	0.22860788	-0.011646332	0.78798944	-0.060649454	-0.027144233	0.76951546	0.18533139	-0.20764526	0.86048045	0.06540774	-0.069667298	1.2555164	-0.12848005	-0.058859424	1.2597847	0.23487225	-0.14181142	1.2992888	0.053601223	-0.1500435	0.94745168	-0.1724088	-0.16143935	0.9596637	0.31161047	-0.023913325	0.73794892	-0.20850775	-0.014668336	0.76246728	0.33633982
